<?xml version="1.0" encoding="UTF-8" standalone="no"?>
<!DOCTYPE svg PUBLIC "-//W3C//DTD SVG 1.1//EN" "http://www.w3.org/Graphics/SVG/1.1/DTD/svg11.dtd">
<svg version="1.1" xmlns="http://www.w3.org/2000/svg" xmlns:xlink="http://www.w3.org/1999/xlink" preserveAspectRatio="xMidYMid meet" viewBox="-2.842170943040401e-14 0 640.0000000000002 680.4161412358134" width="512" height="512"><defs><path d="M277.08 0C289.66 0 299.86 10.2 299.86 22.78C299.86 105.9 299.86 332.48 299.86 415.6C299.86 428.18 289.66 438.38 277.08 438.38C221.66 438.38 78.2 438.38 22.78 438.38C10.2 438.38 0 428.18 0 415.6C0 332.48 0 105.9 0 22.78C0 10.2 10.2 0 22.78 0C78.2 0 221.66 0 277.08 0Z" id="d6dDZTrPR"></path><path d="M14.72 16.41L285.14 16.41L285.14 418.26L14.72 418.26L14.72 16.41Z" id="a5GixIBFh4"></path><path d="M123.21 426.73L176.64 426.73L176.64 430.97L123.21 430.97L123.21 426.73Z" id="cioJhcR0w"></path><path d="M617.22 1.22C629.8 1.22 640 11.42 640 24C640 107.12 640 333.7 640 416.82C640 429.4 629.8 439.6 617.22 439.6C561.8 439.6 418.34 439.6 362.92 439.6C350.34 439.6 340.14 429.4 340.14 416.82C340.14 333.7 340.14 107.12 340.14 24C340.14 11.42 350.34 1.22 362.92 1.22C418.34 1.22 561.8 1.22 617.22 1.22Z" id="b7rc88fSn"></path><path d="M354.86 17.63L625.28 17.63L625.28 419.48L354.86 419.48L354.86 17.63Z" id="d3WBTj1zkr"></path><path d="M463.36 427.95L516.79 427.95L516.79 432.19L463.36 432.19L463.36 427.95Z" id="aeVhWA1Wy"></path><path d="M400.06 680.42L530.83 628.93L443.38 476.09L322.42 528.4L400.06 680.42Z" id="c7KtJ2D7o"></path><path d="M388.62 516.14L460.54 554.55L378.81 586.43L388.62 516.14Z" id="a4uQA8yGws"></path><path d="M464.22 638.73L464.22 567.63L389.03 601.14L464.22 638.73Z" id="asJRfB9YJ"></path><path d="M513.49 268.9L513.49 351.76L490.07 390.06L490.07 253.27L503.18 232.95L513.49 268.9Z" id="kBgInu0s7"></path><path d="M513.49 182.3L513.49 99.44L490.07 61.14L490.07 197.93L503.18 218.25L513.49 182.3Z" id="b4ik3Ms10d"></path><path d="M149.93 174.5L149.93 91.64L173.35 53.34L173.35 190.13L160.25 210.46L149.93 174.5Z" id="l5byMnxhgd"></path><path d="M178.89 248.6L233.65 248.6L248.73 225.15L233.65 202.48L178.89 202.48L164.6 225.15L178.89 248.6Z" id="a4nVHwu7mv"></path><path d="M228.89 343.97L255.08 386.96L252.69 241.57L234.44 268.93L228.89 343.97Z" id="b6Fem0eHlO"></path><path d="M238.37 182.16L241.98 115.72L255.08 96.96L255.08 207.96L238.37 182.16Z" id="b5bLStCGip"></path></defs><g><g><g><use xlink:href="#d6dDZTrPR" opacity="1" fill="#000000" fill-opacity="1"></use></g><g><use xlink:href="#a5GixIBFh4" opacity="1" fill="#ffffff" fill-opacity="1"></use></g><g><use xlink:href="#cioJhcR0w" opacity="1" fill="#96929e" fill-opacity="1"></use></g></g><g><g><use xlink:href="#b7rc88fSn" opacity="1" fill="#000000" fill-opacity="1"></use></g><g><use xlink:href="#d3WBTj1zkr" opacity="1" fill="#ffffff" fill-opacity="1"></use></g><g><use xlink:href="#aeVhWA1Wy" opacity="1" fill="#96929e" fill-opacity="1"></use></g></g><g><g><use xlink:href="#c7KtJ2D7o" opacity="1" fill="#ffffff" fill-opacity="1"></use><g><use xlink:href="#c7KtJ2D7o" opacity="1" fill-opacity="0" stroke="#000000" stroke-width="4" stroke-opacity="1"></use></g></g><g><use xlink:href="#a4uQA8yGws" opacity="1" fill="#050505" fill-opacity="1"></use><g><use xlink:href="#a4uQA8yGws" opacity="1" fill-opacity="0" stroke="#000000" stroke-width="2" stroke-opacity="1"></use></g></g><g><use xlink:href="#asJRfB9YJ" opacity="1" fill="#050505" fill-opacity="1"></use><g><use xlink:href="#asJRfB9YJ" opacity="1" fill-opacity="0" stroke="#000000" stroke-width="2" stroke-opacity="1"></use></g></g></g><g><use xlink:href="#kBgInu0s7" opacity="1" fill="#000000" fill-opacity="1"></use><g><use xlink:href="#kBgInu0s7" opacity="1" fill-opacity="0" stroke="#000000" stroke-width="2" stroke-opacity="1"></use></g></g><g><use xlink:href="#b4ik3Ms10d" opacity="1" fill="#000000" fill-opacity="1"></use><g><use xlink:href="#b4ik3Ms10d" opacity="1" fill-opacity="0" stroke="#000000" stroke-width="2" stroke-opacity="1"></use></g></g><g><use xlink:href="#l5byMnxhgd" opacity="1" fill="#000000" fill-opacity="1"></use><g><use xlink:href="#l5byMnxhgd" opacity="1" fill-opacity="0" stroke="#000000" stroke-width="2" stroke-opacity="1"></use></g></g><g><use xlink:href="#a4nVHwu7mv" opacity="1" fill="#000000" fill-opacity="1"></use><g><use xlink:href="#a4nVHwu7mv" opacity="1" fill-opacity="0" stroke="#000000" stroke-width="2" stroke-opacity="1"></use></g></g><g><use xlink:href="#b6Fem0eHlO" opacity="1" fill="#000000" fill-opacity="1"></use><g><use xlink:href="#b6Fem0eHlO" opacity="1" fill-opacity="0" stroke="#000000" stroke-width="2" stroke-opacity="1"></use></g></g><g><use xlink:href="#b5bLStCGip" opacity="1" fill="#000000" fill-opacity="1"></use><g><use xlink:href="#b5bLStCGip" opacity="1" fill-opacity="0" stroke="#000000" stroke-width="2" stroke-opacity="1"></use></g></g></g></svg>