<?xml version="1.0" encoding="UTF-8" standalone="no"?>
<!DOCTYPE svg PUBLIC "-//W3C//DTD SVG 1.1//EN" "http://www.w3.org/Graphics/SVG/1.1/DTD/svg11.dtd">
<svg version="1.1" xmlns="http://www.w3.org/2000/svg" xmlns:xlink="http://www.w3.org/1999/xlink" preserveAspectRatio="xMidYMid meet" viewBox="95.05769230769158 526.423254159781 198.5843799058086 352.9903846153852" width="194.58" height="348.99"><defs><path d="M277.31 527.42C282.83 527.42 287.31 531.9 287.31 537.42C287.31 605.22 287.31 798.62 287.31 866.41C287.31 871.94 282.83 876.41 277.31 876.41C241.06 876.41 142.31 876.41 106.06 876.41C100.53 876.41 96.06 871.94 96.06 866.41C96.06 798.62 96.06 605.22 96.06 537.42C96.06 531.9 100.53 527.42 106.06 527.42C142.31 527.42 241.06 527.42 277.31 527.42Z" id="c1zp5EL978"></path><path d="M105.89 541.34L277.48 541.34L277.48 862.5L105.89 862.5L105.89 541.34Z" id="c17MwqWMxG"></path><path d="M250.54 535C250.54 537.03 252.19 538.68 254.22 538.68C256.25 538.68 257.89 537.03 257.89 535C257.89 532.98 256.25 531.33 254.22 531.33C252.19 531.33 250.54 532.98 250.54 535Z" id="c4TNyG3qka"></path><path d="M287.31 556.85L290.64 556.85L290.64 601.8L287.31 601.8L287.31 556.85Z" id="dDlttFJg"></path><path d="M287.31 617.52L290.64 617.52L290.64 634.69L287.31 634.69L287.31 617.52Z" id="bDHKu9VO"></path><path d="M263.2 693.34L192.91 556.85L120.17 693.34L263.2 693.34Z" id="fUwk5jWcq"></path><path d="M263.2 713.59L192.91 850.08L120.17 713.59L263.2 713.59Z" id="cDgGmcIiS"></path><path d="M189 870.16C189 872.19 190.65 873.84 192.68 873.84C194.71 873.84 196.36 872.19 196.36 870.16C196.36 868.13 194.71 866.48 192.68 866.48C190.65 866.48 189 868.13 189 870.16Z" id="b3lugg0B1Y"></path><path d="M234.82 866.48L242.18 866.48L242.18 873.84L234.82 873.84L234.82 866.48Z" id="c8Az1yhRB"></path><path d="M149.21 866.48L141.85 870.09L149.21 873.84L149.21 866.48Z" id="a4wCOwyAbT"></path></defs><g><g><use xlink:href="#c1zp5EL978" opacity="1" fill="#000000" fill-opacity="1"></use></g><g><use xlink:href="#c17MwqWMxG" opacity="1" fill="#ffffff" fill-opacity="1"></use></g><g><use xlink:href="#c4TNyG3qka" opacity="1" fill="#fffbfb" fill-opacity="1"></use></g><g><use xlink:href="#dDlttFJg" opacity="1" fill="#000000" fill-opacity="1"></use></g><g><use xlink:href="#bDHKu9VO" opacity="1" fill="#000000" fill-opacity="1"></use></g><g><use xlink:href="#fUwk5jWcq" opacity="1" fill="#000000" fill-opacity="1"></use><g><use xlink:href="#fUwk5jWcq" opacity="1" fill-opacity="0" stroke="#000000" stroke-width="1" stroke-opacity="1"></use></g></g><g><use xlink:href="#cDgGmcIiS" opacity="1" fill="#000000" fill-opacity="1"></use><g><use xlink:href="#cDgGmcIiS" opacity="1" fill-opacity="0" stroke="#000000" stroke-width="1" stroke-opacity="1"></use></g></g><g><use xlink:href="#b3lugg0B1Y" opacity="1" fill="#000000" fill-opacity="1"></use><g><use xlink:href="#b3lugg0B1Y" opacity="1" fill-opacity="0" stroke="#ffffff" stroke-width="1" stroke-opacity="1"></use></g></g><g><use xlink:href="#c8Az1yhRB" opacity="1" fill="#000000" fill-opacity="1"></use><g><use xlink:href="#c8Az1yhRB" opacity="1" fill-opacity="0" stroke="#ffffff" stroke-width="1" stroke-opacity="1"></use></g></g><g><use xlink:href="#a4wCOwyAbT" opacity="1" fill="#000000" fill-opacity="1"></use><g><use xlink:href="#a4wCOwyAbT" opacity="1" fill-opacity="0" stroke="#ffffff" stroke-width="1" stroke-opacity="1"></use></g></g></g></svg>