<?xml version="1.0" encoding="UTF-8" standalone="no"?>
<!DOCTYPE svg PUBLIC "-//W3C//DTD SVG 1.1//EN" "http://www.w3.org/Graphics/SVG/1.1/DTD/svg11.dtd">
<svg version="1.1" xmlns="http://www.w3.org/2000/svg" xmlns:xlink="http://www.w3.org/1999/xlink" preserveAspectRatio="xMidYMid meet" viewBox="323.20408163265313 11.326530612244937 309.6938775510205 459.69387755102093" width="309.69" height="459.69"><defs><path d="M609.37 11.33C622.36 11.33 632.9 21.86 632.9 34.85C632.9 122.09 632.9 360.26 632.9 447.49C632.9 460.49 622.36 471.02 609.37 471.02C552.14 471.02 403.96 471.02 346.73 471.02C333.74 471.02 323.2 460.49 323.2 447.49C323.2 360.26 323.2 122.09 323.2 34.85C323.2 21.86 333.74 11.33 346.73 11.33C403.96 11.33 552.14 11.33 609.37 11.33Z" id="baoD4v3oy"></path><path d="M338.41 28.54L617.69 28.54L617.69 449.92L338.41 449.92L338.41 28.54Z" id="cFLWeKos7"></path><path d="M450.46 458.81L505.64 458.81L505.64 463.25L450.46 463.25L450.46 458.81Z" id="bLnrOkfon"></path></defs><g><g><g><use xlink:href="#baoD4v3oy" opacity="1" fill="#000000" fill-opacity="1"></use></g><g><use xlink:href="#cFLWeKos7" opacity="1" fill="#ffffff" fill-opacity="1"></use></g><g><use xlink:href="#bLnrOkfon" opacity="1" fill="#96929e" fill-opacity="1"></use></g></g></g></svg>